<?xml version="1.0" encoding="UTF-8" standalone="no"?>
<!DOCTYPE svg PUBLIC "-//W3C//DTD SVG 1.0//EN" "http://www.w3.org/TR/2001/PR-SVG-20010719/DTD/svg10.dtd">
<svg width="30cm" height="26cm" viewBox="99 -252 590 503" xmlns="http://www.w3.org/2000/svg" xmlns:xlink="http://www.w3.org/1999/xlink">
  <image x="340" y="20" width="194.444" height="140" xlink:href="attiny85.png"/>
  <g>
    <rect style="fill: #0000ff" x="307.679" y="35.8929" width="1.96429" height="15.7143"/>
    <rect style="fill: none; fill-opacity:0; stroke-width: 2; stroke: #0000ff" x="307.679" y="35.8929" width="1.96429" height="15.7143"/>
    <line style="fill: none; fill-opacity:0; stroke-width: 2; stroke: #0000ff" x1="309.643" y1="43.75" x2="317.5" y2="43.75"/>
    <line style="fill: none; fill-opacity:0; stroke-width: 2; stroke: #0000ff" x1="307.679" y1="43.75" x2="290" y2="30"/>
    <line style="fill: none; fill-opacity:0; stroke-width: 2; stroke: #0000ff" x1="307.679" y1="43.75" x2="290" y2="57.5"/>
    <polygon style="fill: #0000ff" points="294.321,55.9286 290,57.5 292.75,53.5714 "/>
    <polygon style="fill: none; fill-opacity:0; stroke-width: 2; stroke: #0000ff" points="294.321,55.9286 290,57.5 292.75,53.5714 "/>
  </g>
  <g>
    <line style="fill: none; fill-opacity:0; stroke-width: 2; stroke: #7f7f7f" x1="290" y1="-50" x2="290" y2="-22.1739"/>
    <line style="fill: none; fill-opacity:0; stroke-width: 6; stroke: #7f7f7f" x1="280" y1="-22.1739" x2="300" y2="-22.1739"/>
    <polygon style="fill: #ffffff" points="290,-22.1739 280,2.17391 300,2.17391 "/>
    <polygon style="fill: none; fill-opacity:0; stroke-width: 2; stroke: #7f7f7f" points="290,-22.1739 280,2.17391 300,2.17391 "/>
    <line style="fill: none; fill-opacity:0; stroke-width: 2; stroke: #7f7f7f" x1="290" y1="2.17391" x2="290" y2="30"/>
  </g>
  <line style="fill: none; fill-opacity:0; stroke-width: 2; stroke: #7f7f7f" x1="270" y1="-50" x2="290" y2="-50"/>
  <line style="fill: none; fill-opacity:0; stroke-width: 2; stroke: #0000ff" x1="268" y1="30" x2="290" y2="30"/>
  <g>
    <line style="fill: none; fill-opacity:0; stroke-width: 2; stroke: #00ff00" x1="170" y1="100" x2="170" y2="115"/>
    <rect style="fill: #ffffff" x="160" y="115" width="20" height="30"/>
    <rect style="fill: none; fill-opacity:0; stroke-width: 2; stroke: #00ff00" x="160" y="115" width="20" height="30"/>
    <line style="fill: none; fill-opacity:0; stroke-width: 2; stroke: #00ff00" x1="170" y1="145" x2="170" y2="160"/>
  </g>
  <g>
    <line style="fill: none; fill-opacity:0; stroke-width: 2; stroke: #00ff00" x1="128" y1="56" x2="144" y2="64"/>
    <polyline style="fill: none; fill-opacity:0; stroke-width: 2; stroke: #00ff00" points="134.82,65 146,65 139.292,56.0557 "/>
  </g>
  <g>
    <line style="fill: none; fill-opacity:0; stroke-width: 2; stroke: #00ff00" x1="128" y1="68" x2="144" y2="76"/>
    <polyline style="fill: none; fill-opacity:0; stroke-width: 2; stroke: #00ff00" points="134.82,77 146,77 139.292,68.0557 "/>
  </g>
  <g>
    <line style="fill: none; fill-opacity:0; stroke-width: 2; stroke: #00ff00" x1="170" y1="40" x2="170" y2="55"/>
    <rect style="fill: #ffffff" x="160" y="55" width="20" height="30"/>
    <rect style="fill: none; fill-opacity:0; stroke-width: 2; stroke: #00ff00" x="160" y="55" width="20" height="30"/>
    <line style="fill: none; fill-opacity:0; stroke-width: 2; stroke: #00ff00" x1="170" y1="85" x2="170" y2="100"/>
  </g>
  <g>
    <line style="fill: none; fill-opacity:0; stroke-width: 2; stroke: #000000" x1="290" y1="220" x2="290" y2="235"/>
    <line style="fill: none; fill-opacity:0; stroke-width: 2; stroke: #000000" x1="280" y1="235" x2="300" y2="235"/>
    <line style="fill: none; fill-opacity:0; stroke-width: 2; stroke: #000000" x1="283.35" y1="242.5" x2="296.65" y2="242.5"/>
    <line style="fill: none; fill-opacity:0; stroke-width: 2; stroke: #000000" x1="286.7" y1="250" x2="293.3" y2="250"/>
  </g>
  <line style="fill: none; fill-opacity:0; stroke-width: 2; stroke: #000000" x1="290" y1="57.5" x2="290" y2="220"/>
  <line style="fill: none; fill-opacity:0; stroke-width: 2; stroke: #000000" x1="170" y1="220" x2="290" y2="220"/>
  <g>
    <line style="fill: none; fill-opacity:0; stroke-width: 2; stroke: #00ff00" x1="600" y1="60" x2="600" y2="75"/>
    <rect style="fill: #ffffff" x="590" y="75" width="20" height="30"/>
    <rect style="fill: none; fill-opacity:0; stroke-width: 2; stroke: #00ff00" x="590" y="75" width="20" height="30"/>
    <line style="fill: none; fill-opacity:0; stroke-width: 2; stroke: #00ff00" x1="600" y1="105" x2="600" y2="120"/>
  </g>
  <g>
    <polyline style="fill: none; fill-opacity:0; stroke-width: 2; stroke: #00ff00" points="490,80 570,80 570,90 585.528,90 "/>
    <polyline style="fill: none; fill-opacity:0; stroke-width: 2; stroke: #00ff00" points="577.764,95 587.764,90 577.764,85 "/>
  </g>
  <line style="fill: none; fill-opacity:0; stroke-width: 2; stroke: #00ff00" x1="280" y1="100" x2="300" y2="100"/>
  <line style="fill: none; fill-opacity:0; stroke-width: 2; stroke: #00ff00" x1="170" y1="100" x2="280" y2="100"/>
  <line style="fill: none; fill-opacity:0; stroke-width: 2; stroke: #00ff00" x1="300" y1="100" x2="390" y2="100"/>
  <polyline style="fill: none; fill-opacity:0; stroke-width: 2; stroke: #0000ff" points="317.5,43.75 320,43.75 320,80 390,80 "/>
  <g>
    <ellipse style="fill: none; fill-opacity:0; stroke-width: 2; stroke: #00ff00" cx="570.909" cy="179.091" rx="10.9091" ry="10.9091"/>
    <line style="fill: none; fill-opacity:0; stroke-width: 2; stroke: #00ff00" x1="579.091" y1="168.182" x2="587.273" y2="160"/>
    <line style="fill: none; fill-opacity:0; stroke-width: 2; stroke: #00ff00" x1="581.818" y1="170.909" x2="590" y2="162.727"/>
    <polygon style="fill: #00ff00" points="581,164.364 579.091,168.182 582.636,166 "/>
    <polygon style="fill: none; fill-opacity:0; stroke-width: 2; stroke: #00ff00" points="581,164.364 579.091,168.182 582.636,166 "/>
    <polygon style="fill: #00ff00" points="583.727,167.091 581.818,170.909 585.364,168.727 "/>
    <polygon style="fill: none; fill-opacity:0; stroke-width: 2; stroke: #00ff00" points="583.727,167.091 581.818,170.909 585.364,168.727 "/>
  </g>
  <line style="fill: none; fill-opacity:0; stroke-width: 2; stroke: #000000" x1="170" y1="160" x2="170" y2="220"/>
  <g>
    <line style="fill: none; fill-opacity:0; stroke-width: 2; stroke: #0000ff" x1="548" y1="124" x2="548" y2="138"/>
    <rect style="fill: #ffffff" x="540" y="138" width="16" height="28"/>
    <rect style="fill: none; fill-opacity:0; stroke-width: 2; stroke: #0000ff" x="540" y="138" width="16" height="28"/>
    <line style="fill: none; fill-opacity:0; stroke-width: 2; stroke: #0000ff" x1="548" y1="166" x2="548" y2="180"/>
  </g>
  <line style="fill: none; fill-opacity:0; stroke-width: 2; stroke: #0000ff" x1="488" y1="124" x2="546" y2="124"/>
  <polyline style="fill: none; fill-opacity:0; stroke-width: 2; stroke: #00ff00" points="490,100 490,100 570,100 570,170 "/>
  <line style="fill: none; fill-opacity:0; stroke-width: 2; stroke: #000000" x1="290" y1="220" x2="600" y2="220"/>
  <g>
    <line style="fill: none; fill-opacity:0; stroke-width: 2; stroke: #0000ff" x1="548" y1="220" x2="548" y2="206.087"/>
    <line style="fill: none; fill-opacity:0; stroke-width: 6; stroke: #0000ff" x1="540" y1="206.087" x2="556" y2="206.087"/>
    <polygon style="fill: #ffffff" points="548,206.087 540,193.913 556,193.913 "/>
    <polygon style="fill: none; fill-opacity:0; stroke-width: 2; stroke: #0000ff" points="548,206.087 540,193.913 556,193.913 "/>
    <line style="fill: none; fill-opacity:0; stroke-width: 2; stroke: #0000ff" x1="540" y1="197.043" x2="536" y2="204"/>
    <polygon style="fill: #0000ff" points="536,201.774 536,204 537.6,204 "/>
    <polygon style="fill: none; fill-opacity:0; stroke-width: 2; stroke: #0000ff" points="536,201.774 536,204 537.6,204 "/>
    <line style="fill: none; fill-opacity:0; stroke-width: 2; stroke: #0000ff" x1="541.6" y1="200.522" x2="537.6" y2="207.478"/>
    <polygon style="fill: #0000ff" points="537.6,205.252 537.6,207.478 539.2,207.478 "/>
    <polygon style="fill: none; fill-opacity:0; stroke-width: 2; stroke: #0000ff" points="537.6,205.252 537.6,207.478 539.2,207.478 "/>
    <line style="fill: none; fill-opacity:0; stroke-width: 2; stroke: #0000ff" x1="548" y1="193.913" x2="548" y2="180"/>
  </g>
  <line style="fill: none; fill-opacity:0; stroke-width: 2; stroke: #000000" x1="380" y1="120" x2="380" y2="220"/>
  <line style="fill: none; fill-opacity:0; stroke-width: 2; stroke: #000000" x1="600" y1="120" x2="600" y2="220"/>
  <g>
    <line style="fill: none; fill-opacity:0; stroke-width: 2; stroke: #7f7f7f" x1="290" y1="-160.75" x2="290" y2="-140.062"/>
    <rect style="fill: #ffffff" x="280" y="-140.062" width="20" height="41.375"/>
    <rect style="fill: none; fill-opacity:0; stroke-width: 2; stroke: #7f7f7f" x="280" y="-140.062" width="20" height="41.375"/>
    <line style="fill: none; fill-opacity:0; stroke-width: 2; stroke: #7f7f7f" x1="290" y1="-98.6875" x2="290" y2="-78"/>
  </g>
  <line style="fill: none; fill-opacity:0; stroke-width: 2; stroke: #7f7f7f" x1="290" y1="-50" x2="290" y2="-82"/>
  <line style="fill: none; fill-opacity:0; stroke-width: 2; stroke: #ff0000" x1="170" y1="40" x2="170" y2="-130"/>
  <line style="fill: none; fill-opacity:0; stroke-width: 2; stroke: #ff0000" x1="170" y1="-130" x2="570" y2="-130"/>
  <line style="fill: none; fill-opacity:0; stroke-width: 2; stroke: #ff0000" x1="600" y1="-130" x2="600" y2="60"/>
  <line style="fill: none; fill-opacity:0; stroke-width: 2; stroke: #ff0000" x1="380" y1="50" x2="380" y2="-130"/>
  <line style="fill: none; fill-opacity:0; stroke-width: 2; stroke: #ff0000" x1="500" y1="50" x2="500" y2="-130"/>
  <g>
    <rect style="fill: #ffffff" x="100" y="-130" width="40" height="40"/>
    <rect style="fill: none; fill-opacity:0; stroke-width: 2; stroke: #000000" x="100" y="-130" width="40" height="40"/>
    <ellipse style="fill: #ffffff" cx="113.333" cy="-110" rx="3.33333" ry="3.33333"/>
    <ellipse style="fill: none; fill-opacity:0; stroke-width: 2; stroke: #000000" cx="113.333" cy="-110" rx="3.33333" ry="3.33333"/>
    <ellipse style="fill: #ffffff" cx="126.667" cy="-110" rx="3.33333" ry="3.33333"/>
    <ellipse style="fill: none; fill-opacity:0; stroke-width: 2; stroke: #000000" cx="126.667" cy="-110" rx="3.33333" ry="3.33333"/>
  </g>
  <line style="fill: none; fill-opacity:0; stroke-width: 2; stroke: #ff00ff" x1="190" y1="-90" x2="140" y2="-100"/>
  <path style="fill: none; fill-opacity:0; stroke-width: 2; stroke: #00ffff" d="M 140 -110 C 160,-110 160,-150 130,-160"/>
  <path style="fill: none; fill-opacity:0; stroke-width: 2; stroke: #ff00ff" d="M 268 -70 C 306,-70 259.53,-107.082 248,-114 C 236.47,-120.918 188,-140 160,-160"/>
  <path style="fill: none; fill-opacity:0; stroke-width: 2; stroke: #ff00ff" d="M 160 -220 L 160,-208 C 170,-209.5 180,-211 180,-203.5 C 180,-196 160,-194.5 160,-199 C 160,-203.5 180,-202 180,-194.5 C 180,-187 160,-185.5 160,-190 C 160,-194.5 180,-193 180,-185.5 C 180,-178 160,-176.5 160,-181 C 160,-185.5 180,-184 180,-176.5 C 180,-169 165,-170.5 160,-172 L 160,-160"/>
  <path style="fill: none; fill-opacity:0; stroke-width: 2; stroke: #ff0000" d="M 240 -220 L 240,-208 C 230,-209.5 220,-211 220,-203.5 C 220,-196 240,-194.5 240,-199 C 240,-203.5 220,-202 220,-194.5 C 220,-187 240,-185.5 240,-190 C 240,-194.5 220,-193 220,-185.5 C 220,-178 240,-176.5 240,-181 C 240,-185.5 220,-184 220,-176.5 C 220,-169 235,-170.5 240,-172 L 240,-160"/>
  <line style="fill: none; fill-opacity:0; stroke-width: 2; stroke: #ff0000" x1="240" y1="-220" x2="281" y2="-221.25"/>
  <rect style="fill: none; fill-opacity:0; stroke-width: 2; stroke: #000000" x="172" y="-220" width="60" height="60"/>
  <g>
    <line style="fill: none; fill-opacity:0; stroke-width: 2; stroke: #000000" x1="240" y1="-160" x2="240" y2="-150"/>
    <line style="fill: none; fill-opacity:0; stroke-width: 2; stroke: #000000" x1="230" y1="-150" x2="250" y2="-150"/>
    <line style="fill: none; fill-opacity:0; stroke-width: 2; stroke: #000000" x1="233.35" y1="-145" x2="246.65" y2="-145"/>
    <line style="fill: none; fill-opacity:0; stroke-width: 2; stroke: #000000" x1="236.7" y1="-140" x2="243.3" y2="-140"/>
  </g>
  <line style="fill: none; fill-opacity:0; stroke-width: 2; stroke: #000000" x1="572" y1="190" x2="572" y2="220"/>
  <polyline style="fill: none; fill-opacity:0; stroke-width: 2; stroke: #ff0000" points="570,-130 640,-130 640,180 640,180 "/>
  <line style="fill: none; fill-opacity:0; stroke-width: 2; stroke: #ff0000" x1="590" y1="180" x2="610" y2="180"/>
  <line style="fill: none; fill-opacity:0; stroke-width: 2; stroke: #ff0000" x1="580" y1="180" x2="590" y2="180"/>
  <line style="fill: none; fill-opacity:0; stroke-width: 2; stroke: #ff0000" x1="640" y1="180" x2="610" y2="180"/>
  <text font-size="12.8" style="fill: #000000;text-anchor:start;font-family:sans-serif;font-style:normal;font-weight:normal" x="580" y="200">
    <tspan x="580" y="200">IR</tspan>
  </text>
  <text font-size="12.8" style="fill: #000000;text-anchor:start;font-family:sans-serif;font-style:normal;font-weight:normal" x="300" y="-100">
    <tspan x="300" y="-100">i = 40 mA</tspan>
    <tspan x="300" y="-84">R = 55 Ω</tspan>
  </text>
  <text font-size="12.8" style="fill: #000000;text-anchor:start;font-family:sans-serif;font-style:normal;font-weight:normal" x="240" y="-240">
    <tspan x="240" y="-240">U = 5V</tspan>
  </text>
  <text font-size="12.8" style="fill: #000000;text-anchor:start;font-family:sans-serif;font-style:normal;font-weight:normal" x="620" y="100">
    <tspan x="620" y="100">0Ω - 10 kΩ</tspan>
  </text>
  <text font-size="12.8" style="fill: #000000;text-anchor:start;font-family:sans-serif;font-style:normal;font-weight:normal" x="180" y="80">
    <tspan x="180" y="80">20Ω - 200kΩ</tspan>
  </text>
  <text font-size="12.8" style="fill: #000000;text-anchor:start;font-family:sans-serif;font-style:normal;font-weight:normal" x="560" y="-40">
    <tspan x="560" y="-40">i = 0,5 mA</tspan>
  </text>
  <text font-size="12.8" style="fill: #000000;text-anchor:start;font-family:sans-serif;font-style:normal;font-weight:normal" x="180" y="140">
    <tspan x="180" y="140">10kΩ</tspan>
  </text>
  <text font-size="12.8" style="fill: #000000;text-anchor:start;font-family:sans-serif;font-style:normal;font-weight:normal" x="520" y="180">
    <tspan x="520" y="180">1kΩ</tspan>
  </text>
  <g>
    <rect style="fill: #ffffff" x="281" y="-231.75" width="76" height="21"/>
    <rect style="fill: none; fill-opacity:0; stroke-width: 2; stroke: #000000" x="281" y="-231.75" width="76" height="21"/>
  </g>
  <g>
    <line style="fill: none; fill-opacity:0; stroke-width: 2; stroke: #000000" x1="321" y1="-205.25" x2="321" y2="-195.25"/>
    <line style="fill: none; fill-opacity:0; stroke-width: 2; stroke: #000000" x1="311" y1="-195.25" x2="331" y2="-195.25"/>
    <line style="fill: none; fill-opacity:0; stroke-width: 2; stroke: #000000" x1="314.35" y1="-190.25" x2="327.65" y2="-190.25"/>
    <line style="fill: none; fill-opacity:0; stroke-width: 2; stroke: #000000" x1="317.7" y1="-185.25" x2="324.3" y2="-185.25"/>
  </g>
  <polyline style="fill: none; fill-opacity:0; stroke-width: 2; stroke: #ff0000" points="260.5,-220.625 260.5,-190.687 290,-190.687 290,-160.75 "/>
  <polyline style="fill: none; fill-opacity:0; stroke-width: 2; stroke: #ff0000" points="379.882,-129.193 379.882,-221.25 357,-221.25 "/>
  <text font-size="12.8" style="fill: #000000;text-anchor:middle;font-family:sans-serif;font-style:normal;font-weight:normal" x="319" y="-216.8">
    <tspan x="319" y="-216.8">LM7805</tspan>
  </text>
  <g>
    <rect style="fill: none; fill-opacity:0; stroke-width: 2; stroke: #0000ff" x="200" y="-100" width="60" height="140"/>
    <path style="fill: none; fill-opacity:0; stroke-width: 2; stroke: #0000ff" d="M 220 -50 L 220,-42 C 230,-43 240,-44 240,-39 C 240,-34 220,-33 220,-36 C 220,-39 240,-38 240,-33 C 240,-28 220,-27 220,-30 C 220,-33 240,-32 240,-27 C 240,-22 220,-21 220,-24 C 220,-27 240,-26 240,-21 C 240,-16 225,-17 220,-18 L 220,-10"/>
    <line style="fill: none; fill-opacity:0; stroke-width: 2; stroke: #0000ff" x1="270" y1="-50" x2="220" y2="-50"/>
    <line style="fill: none; fill-opacity:0; stroke-width: 2; stroke: #0000ff" x1="270" y1="30" x2="220" y2="30"/>
    <g>
      <line style="fill: none; fill-opacity:0; stroke-width: 2; stroke: #0000ff" x1="220" y1="-10" x2="220" y2="-5.55112e-16"/>
      <rect style="fill: #ffffff" x="210" y="-5.55112e-16" width="20" height="20"/>
      <rect style="fill: none; fill-opacity:0; stroke-width: 2; stroke: #0000ff" x="210" y="-5.55112e-16" width="20" height="20"/>
      <line style="fill: none; fill-opacity:0; stroke-width: 2; stroke: #0000ff" x1="220" y1="20" x2="220" y2="30"/>
    </g>
    <line style="fill: none; fill-opacity:0; stroke-width: 2; stroke: #0000ff" x1="190" y1="-70" x2="220" y2="-70"/>
    <line style="fill: none; fill-opacity:0; stroke-width: 2; stroke: #0000ff" x1="190" y1="-90" x2="220" y2="-90"/>
    <line style="fill: none; fill-opacity:0; stroke-width: 2; stroke: #0000ff" x1="250" y1="-70" x2="270" y2="-70"/>
    <g>
      <line style="fill: none; fill-opacity:0; stroke-width: 2; stroke: #0000ff" x1="217" y1="-70.5" x2="250" y2="-70"/>
      <path style="fill: #0000ff" d="M 217 -70.5 C 217.038,-72.9997 219.575,-75.4616 222.075,-75.4237 C 224.575,-75.3858 227.037,-72.8482 226.999,-70.3485 C 226.961,-67.8488 224.423,-65.387 221.924,-65.4248 C 219.424,-65.4627 216.962,-68.0003 217,-70.5z"/>
      <path style="fill: none; fill-opacity:0; stroke-width: 2; stroke: #0000ff" d="M 217 -70.5 C 217.038,-72.9997 219.575,-75.4616 222.075,-75.4237 C 224.575,-75.3858 227.037,-72.8482 226.999,-70.3485 C 226.961,-67.8488 224.423,-65.387 221.924,-65.4248 C 219.424,-65.4627 216.962,-68.0003 217,-70.5"/>
      <path style="fill: #0000ff" d="M 250 -70 C 249.962,-67.5003 247.425,-65.0384 244.925,-65.0763 C 242.425,-65.1142 239.963,-67.6518 240.001,-70.1515 C 240.039,-72.6512 242.577,-75.113 245.076,-75.0752 C 247.576,-75.0373 250.038,-72.4997 250,-70z"/>
      <path style="fill: none; fill-opacity:0; stroke-width: 2; stroke: #0000ff" d="M 250 -70 C 249.962,-67.5003 247.425,-65.0384 244.925,-65.0763 C 242.425,-65.1142 239.963,-67.6518 240.001,-70.1515 C 240.039,-72.6512 242.577,-75.113 245.076,-75.0752 C 247.576,-75.0373 250.038,-72.4997 250,-70"/>
    </g>
    <text font-size="12.8" style="fill: #000000;text-anchor:start;font-family:sans-serif;font-style:normal;font-weight:normal" x="220" y="10">
      <tspan x="220" y="10"></tspan>
    </text>
    <text font-size="12.8" style="fill: #000000;text-anchor:start;font-family:sans-serif;font-style:normal;font-weight:normal" x="228" y="28">
      <tspan x="228" y="28">70.5 Ω</tspan>
    </text>
  </g>
  <text font-size="12.8" style="fill: #000000;text-anchor:start;font-family:sans-serif;font-style:normal;font-weight:normal" x="121.532" y="-175.281">
    <tspan x="121.532" y="-175.281">230v</tspan>
  </text>
</svg>
